<svg width="64" height="64" viewBox="0 0 64 64" fill="none" xmlns="http://www.w3.org/2000/svg">
<path d="M31.62 63.24C49.0832 63.24 63.24 49.0832 63.24 31.62C63.24 14.1568 49.0832 0 31.62 0C14.1568 0 0 14.1568 0 31.62C0 49.0832 14.1568 63.24 31.62 63.24Z" fill="#2E3148"/>
<path d="M31.6595 10.9287C29.1003 10.9287 27.0252 20.2111 27.0252 31.6595C27.0252 43.1079 29.1003 52.3904 31.6595 52.3904C34.2168 52.3904 36.2919 43.1079 36.2919 31.6595C36.2919 20.2111 34.2168 10.9287 31.6595 10.9287ZM31.9797 51.2185C31.6872 51.6098 31.3927 51.3173 31.3927 51.3173C30.2149 49.9497 29.626 47.4142 29.626 47.4142C27.5647 40.7799 28.0548 26.5371 28.0548 26.5371C29.0232 15.231 30.786 12.5591 31.3848 11.9662C31.4462 11.9054 31.527 11.8683 31.6131 11.8614C31.6992 11.8545 31.785 11.8783 31.8552 11.9286C32.7247 12.5472 33.4559 15.1242 33.4559 15.1242C35.6101 23.1241 35.4144 30.6339 35.4144 30.6339C35.6101 37.1713 34.3354 44.4874 34.3354 44.4874C33.3532 50.0485 31.9797 51.2185 31.9797 51.2185Z" fill="white"/>
<path d="M49.6395 21.3435C48.3648 19.1222 39.2839 21.9423 29.3493 27.6398C19.4147 33.3374 12.4069 39.7543 13.6776 41.9756C14.9523 44.1969 24.0352 41.3768 33.9698 35.6792C43.9044 29.9817 50.9122 23.5628 49.6395 21.3435ZM14.8515 41.6692C14.3654 41.6099 14.476 41.2068 14.476 41.2068C15.0729 39.5072 16.978 37.7325 16.978 37.7325C21.7071 32.6437 34.3077 25.9818 34.3077 25.9818C44.5961 21.1953 47.7917 21.3969 48.6019 21.6182C48.6856 21.6412 48.7584 21.6931 48.8072 21.7648C48.8561 21.8365 48.8779 21.9232 48.8687 22.0095C48.7699 23.0707 46.8925 24.9877 46.8925 24.9877C41.0309 30.8394 34.4184 34.4105 34.4184 34.4105C28.8453 37.8333 21.8633 40.3649 21.8633 40.3649C16.5511 42.2779 14.8515 41.6692 14.8515 41.6692Z" fill="white"/>
<path d="M49.594 42.0487C50.8786 39.8353 43.8886 33.3868 33.9856 27.6458C24.0846 21.9067 15.0057 19.053 13.7231 21.2704C12.4385 23.4897 19.4305 29.9323 29.3355 35.6733C39.2424 41.4123 48.3114 44.266 49.594 42.0487ZM14.5748 22.1261C14.3831 21.6755 14.7843 21.5668 14.7843 21.5668C16.557 21.2309 19.0471 21.9957 19.0471 21.9957C25.8197 23.5371 37.8966 31.1022 37.8966 31.1022C47.1948 37.608 48.6217 40.4756 48.8351 41.2878C48.8567 41.3713 48.8482 41.4597 48.8109 41.5374C48.7737 41.6152 48.7101 41.6772 48.6316 41.7127C47.6632 42.1574 45.0644 41.4953 45.0644 41.4953C37.0606 39.3491 30.6595 35.4183 30.6595 35.4183C24.9087 32.3156 19.221 27.543 19.221 27.543C14.8989 23.9027 14.5768 22.1281 14.5768 22.1281L14.5729 22.1261H14.5748Z" fill="white"/>
<path d="M31.6101 34.0488C32.957 34.0488 34.0488 32.957 34.0488 31.6101C34.0488 30.2633 32.957 29.1714 31.6101 29.1714C30.2633 29.1714 29.1714 30.2633 29.1714 31.6101C29.1714 32.957 30.2633 34.0488 31.6101 34.0488Z" fill="white"/>
<path d="M41.6099 24.2209C42.7014 24.2209 43.5862 23.3361 43.5862 22.2447C43.5862 21.1532 42.7014 20.2684 41.6099 20.2684C40.5185 20.2684 39.6337 21.1532 39.6337 22.2447C39.6337 23.3361 40.5185 24.2209 41.6099 24.2209Z" fill="white"/>
<path d="M18.391 29.1971C19.4824 29.1971 20.3672 28.3123 20.3672 27.2209C20.3672 26.1294 19.4824 25.2446 18.391 25.2446C17.2995 25.2446 16.4147 26.1294 16.4147 27.2209C16.4147 28.3123 17.2995 29.1971 18.391 29.1971Z" fill="white"/>
<path d="M28.7327 47.1454C29.8242 47.1454 30.709 46.2606 30.709 45.1692C30.709 44.0777 29.8242 43.1929 28.7327 43.1929C27.6413 43.1929 26.7565 44.0777 26.7565 45.1692C26.7565 46.2606 27.6413 47.1454 28.7327 47.1454Z" fill="white"/>
</svg>
