<svg width="64" height="64" viewBox="0 0 64 64" fill="none" xmlns="http://www.w3.org/2000/svg">
<path d="M31.62 63.24C49.0832 63.24 63.24 49.0832 63.24 31.62C63.24 14.1568 49.0832 0 31.62 0C14.1568 0 0 14.1568 0 31.62C0 49.0832 14.1568 63.24 31.62 63.24Z" fill="#F7931A"/>
<path d="M45.8273 27.707C46.4478 23.5648 43.2917 21.3376 38.9796 19.8514L40.3787 14.2389L36.9638 13.3891L35.6002 18.8534C34.7029 18.6281 33.782 18.4186 32.8631 18.2092L34.2366 12.7093L30.8216 11.8575L29.4224 17.4681C28.6793 17.2981 27.9481 17.1321 27.2406 16.9542L27.2446 16.9365L22.5332 15.7606L21.6241 19.4087C21.6241 19.4087 24.1597 19.9898 24.1063 20.0253C25.4897 20.3712 25.7387 21.2862 25.6972 22.0134L24.1043 28.4066C24.1992 28.4303 24.3217 28.4659 24.46 28.5193L24.0984 28.4303L21.8652 37.3867C21.6953 37.8057 21.2664 38.4361 20.2981 38.197C20.3336 38.2464 17.8159 37.5784 17.8159 37.5784L16.1203 41.4874L20.5668 42.5961C21.3929 42.8036 22.2032 43.021 22.9996 43.2245L21.5866 48.9003L24.9996 49.7501L26.3987 44.1376C27.3315 44.3885 28.2367 44.6217 29.122 44.8431L27.7268 50.4319L31.1417 51.2817L32.5548 45.6178C38.3808 46.7205 42.7601 46.2759 44.604 41.0072C46.0901 36.7662 44.5308 34.3176 41.4657 32.7227C43.6988 32.2089 45.3787 30.7406 45.8273 27.707ZM38.0211 38.6515C36.9677 42.8945 29.8236 40.6001 27.5074 40.025L29.3849 32.5054C31.701 33.0844 39.1258 34.2286 38.0211 38.6515ZM39.0784 27.6458C38.1159 31.5054 32.1714 29.543 30.2445 29.0627L31.9441 22.2447C33.8709 22.7249 40.0823 23.6201 39.0784 27.6458Z" fill="white"/>
</svg>
