<svg width="64" height="64" viewBox="0 0 64 64" fill="none" xmlns="http://www.w3.org/2000/svg">
<path d="M31.62 63.24C49.0832 63.24 63.24 49.0832 63.24 31.62C63.24 14.1568 49.0832 0 31.62 0C14.1568 0 0 14.1568 0 31.62C0 49.0832 14.1568 63.24 31.62 63.24Z" fill="#E6007A"/>
<path d="M32.1575 13.0927C24.8316 13.0927 18.8455 19.0451 18.8455 26.4047C18.8455 27.8849 19.0906 29.3295 19.5491 30.7366C19.7114 31.2012 20.0496 31.5834 20.4909 31.8011C20.9322 32.0188 21.4413 32.0546 21.9087 31.9006C22.3729 31.7379 22.7547 31.3996 22.972 30.9583C23.1893 30.517 23.2248 30.0081 23.0707 29.541C22.6843 28.4439 22.5054 27.2846 22.5431 26.1221C22.6834 21.1577 26.6991 17.0708 31.6655 16.8258C32.9663 16.7574 34.2675 16.9544 35.4899 17.4048C36.7122 17.8552 37.8302 18.5495 38.7758 19.4455C39.7213 20.3415 40.4748 21.4205 40.9902 22.6169C41.5056 23.8133 41.7723 25.102 41.774 26.4047C41.771 28.8546 40.8324 31.2108 39.15 32.9916C37.4676 34.7725 35.1685 35.8434 32.7227 35.9855C32.7227 35.9855 30.8552 36.0903 29.9402 36.2326C29.4817 36.3017 29.1299 36.3729 28.8829 36.4085C28.7762 36.444 28.6714 36.3373 28.705 36.2306L29.0232 34.6832L30.7485 26.7229C30.849 26.2469 30.7576 25.7505 30.4941 25.3415C30.2306 24.9326 29.8164 24.6442 29.3414 24.5391C28.8651 24.4386 28.3685 24.5303 27.9595 24.7942C27.5505 25.0581 27.2623 25.4728 27.1576 25.9482C27.1576 25.9482 23.0016 45.3194 22.966 45.5308C22.8655 46.0071 22.9572 46.5037 23.2211 46.9127C23.485 47.3217 23.8997 47.6099 24.3751 47.7146C24.8513 47.8151 25.348 47.7234 25.757 47.4595C26.1659 47.1956 26.4541 46.7809 26.5588 46.3055C26.5924 46.0941 27.1576 43.523 27.1576 43.523C27.3577 42.5803 27.8439 41.7224 28.55 41.0666C29.256 40.4108 30.1474 39.989 31.1022 39.859C31.793 39.7833 32.4856 39.7247 33.1793 39.6831C36.523 39.4225 39.6457 37.9108 41.9241 35.4496C44.2025 32.9884 45.4692 29.7586 45.4715 26.4047C45.4715 19.0451 39.4835 13.0927 32.1575 13.0927ZM33.1081 43.7344C32.8214 43.6726 32.5252 43.6682 32.2367 43.7217C31.9483 43.7751 31.6733 43.8853 31.4277 44.0457C31.1822 44.2062 30.9709 44.4138 30.8061 44.6565C30.6413 44.8992 30.5264 45.1722 30.4678 45.4597C30.2208 46.6573 30.9619 47.8549 32.1931 48.1019C32.4802 48.164 32.7767 48.1685 33.0654 48.1151C33.3542 48.0617 33.6295 47.9514 33.8753 47.7907C34.1212 47.63 34.3326 47.4221 34.4974 47.179C34.6622 46.9359 34.7771 46.6625 34.8354 46.3747C35.0804 45.1435 34.3413 43.9795 33.1081 43.7344Z" fill="white"/>
</svg>
