<svg width="64" height="64" viewBox="0 0 64 64" fill="none" xmlns="http://www.w3.org/2000/svg">
<path fill-rule="evenodd" clip-rule="evenodd" d="M31.62 63.24C14.1559 63.24 0 49.0841 0 31.62C0 14.1559 14.1559 0 31.62 0C49.0841 0 63.24 14.1559 63.24 31.62C63.24 49.0841 49.0841 63.24 31.62 63.24ZM44.9241 31.62L31.62 24.0905L18.3159 31.62L31.62 39.0922L44.9241 31.616V31.62ZM31.62 41.5941C27.0114 38.9861 22.4002 36.3827 17.7863 33.784C21.8949 40.2029 26.9956 48.1316 31.62 55.333C36.2444 48.1335 41.3451 40.2029 45.4538 33.784C40.8398 36.3827 36.2286 38.9861 31.62 41.5941ZM31.62 21.6557L45.4538 29.377L31.62 7.905L17.7863 29.3789L31.62 21.6557Z" fill="white"/>
<path d="M31.5983 32.7129L18.3159 31.5726L31.5963 24.0589V32.7129H31.5983ZM31.5983 41.5269V55.2421C26.9798 48.0525 21.8889 40.1396 17.7862 33.7346C22.6281 36.4618 27.6833 39.3116 31.5983 41.5269ZM31.5983 21.6301L17.7862 29.3374L31.5983 7.905V21.6301Z" fill="white" fill-opacity="0.8"/>
<path d="M44.8806 31.5726L31.5983 32.7129V24.0589L44.8806 31.5726ZM31.5983 41.5289C35.5112 39.3155 40.5645 36.4618 45.4083 33.7346C41.3056 40.1416 36.2148 48.0545 31.5983 55.2401V41.5289ZM31.5983 21.6301V7.905L45.4083 29.3374L31.5983 21.6301Z" fill="white" fill-opacity="0.5"/>
<path fill-rule="evenodd" clip-rule="evenodd" d="M31.5963 32.7129L18.3139 31.5726L31.5963 39.0329V32.7129Z" fill="white" fill-opacity="0.5"/>
</svg>
